<svg width="91px" height="112px" viewBox="0 0 91 112" version="1.1" xmlns="http://www.w3.org/2000/svg" xmlns:xlink="http://www.w3.org/1999/xlink">
    <!-- Generator: Sketch 49 (51002) - http://www.bohemiancoding.com/sketch -->
    <desc>Created with Sketch.</desc>
    <defs></defs>
    <g id="Page-2" stroke="none" stroke-width="1" fill="none" fill-rule="evenodd">
        <g id="40-Color-Avatars" transform="translate(-1069.000000, -131.000000)">
            <g id="user-6" transform="translate(1069.000000, 131.000000)">
                <path d="M70.8417722,22.5154639 L61.6265823,22.5154639 C53.1716456,22.5154639 53.9549367,27.1340206 45.5,27.1340206 C37.0450633,27.1340206 37.8283544,22.5154639 29.3734177,22.5154639 L20.1582278,22.5154639 C20.1582278,22.5154639 23.7060759,1.73195876 45.5,1.73195876 C67.2939241,1.73195876 70.8417722,22.5154639 70.8417722,22.5154639 L70.8417722,22.5154639 Z" id="Shape" fill="#C9CCC2"></path>
                <path d="M60.4746835,110.268041 L30.5253165,110.268041 C30.5253165,101.977732 37.2293671,95.257732 45.5,95.257732 C53.7706329,95.257732 60.4746835,101.977732 60.4746835,110.268041 L60.4746835,110.268041 Z" id="Shape" fill="#AFB6BB"></path>
                <path d="M73.1455696,87.036701 L73.1455696,110.268041 L60.4746835,110.268041 C60.4746835,101.977732 53.7706329,95.257732 45.5,95.257732 C37.2293671,95.257732 30.5253165,101.977732 30.5253165,110.268041 L17.8544304,110.268041 L17.8544304,87.0597938 C19.5822785,86.297732 21.4944304,85.5587629 23.6139241,84.8659794 C23.6139241,84.8659794 31.4698734,80.7554639 33.9810127,77.9381443 C33.9810127,77.9381443 38.7268354,83.7113402 45.5,83.7113402 C52.2731646,83.7113402 57.0189873,77.9381443 57.0189873,77.9381443 C59.5301266,80.7554639 67.3860759,84.8659794 67.3860759,84.8659794 C69.5055696,85.5356701 71.4177215,86.2746392 73.1455696,87.036701 L73.1455696,87.036701 Z" id="Shape" fill="#FFD248"></path>
                <path d="M17.8544304,87.0597938 L17.8544304,110.268041 L1.7278481,110.268041 L1.7278481,104.494845 C1.7278481,104.494845 1.88911392,94.2185567 17.8544304,87.0597938 L17.8544304,87.0597938 Z" id="Shape" fill="#FFE1B2"></path>
                <path d="M89.2721519,104.494845 L89.2721519,110.268041 L73.1455696,110.268041 L73.1455696,87.036701 C89.2260759,94.1492784 89.2721519,104.494845 89.2721519,104.494845 L89.2721519,104.494845 Z" id="Shape" fill="#FFE1B2"></path>
                <path d="M33.9810127,77.9381443 L33.9810127,70.5946392 C37.344557,72.3496907 41.2149367,73.3195876 45.5,73.3195876 C49.7850633,73.3195876 53.655443,72.3496907 57.0189873,70.5946392 L57.0189873,77.9381443 C57.0189873,77.9381443 52.2731646,83.7113402 45.5,83.7113402 C38.7268354,83.7113402 33.9810127,77.9381443 33.9810127,77.9381443 L33.9810127,77.9381443 Z" id="Shape" fill="#FFD7A3"></path>
                <path d="M20.1582278,45.6082474 C20.1582278,47.1554639 20.2503797,48.6795876 20.4577215,50.1575258 C16.8868354,49.6725773 13.2468354,46.2548454 13.2468354,43.2989691 C13.2468354,40.1121649 16.3339241,38.6804124 20.1582278,38.6804124 L20.1582278,45.6082474 L20.1582278,45.6082474 Z" id="Shape" fill="#FFD7A3"></path>
                <path d="M70.8417722,38.6804124 C74.6660759,38.6804124 77.7531646,40.1121649 77.7531646,43.2989691 C77.7531646,46.2548454 74.1131646,49.6725773 70.5422785,50.1575258 C70.7496203,48.6795876 70.8417722,47.1554639 70.8417722,45.6082474 L70.8417722,38.6804124 L70.8417722,38.6804124 Z" id="Shape" fill="#FFD7A3"></path>
                <path d="M70.5422785,50.1575258 C69.2982278,59.1868041 64.4141772,66.7612371 57.0189873,70.5946392 C53.655443,72.3496907 49.7850633,73.3195876 45.5,73.3195876 C41.2149367,73.3195876 37.344557,72.3496907 33.9810127,70.5946392 C26.5858228,66.7612371 21.7017722,59.1868041 20.4577215,50.1575258 C20.2503797,48.6795876 20.1582278,47.1554639 20.1582278,45.6082474 L20.1582278,38.6804124 L20.1582278,22.5154639 L29.3734177,22.5154639 C37.8283544,22.5154639 37.0450633,27.1340206 45.5,27.1340206 C53.9549367,27.1340206 53.1716456,22.5154639 61.6265823,22.5154639 L70.8417722,22.5154639 L70.8417722,38.6804124 L70.8417722,45.6082474 C70.8417722,47.1554639 70.7496203,48.6795876 70.5422785,50.1575258 L70.5422785,50.1575258 Z" id="Shape" fill="#FFE1B2"></path>
                <path d="M73.8415468,85.4513814 C71.9687899,84.6255835 70.0225418,83.8889237 68.0534861,83.2610309 C65.995043,82.1740536 60.9294532,79.2964619 58.7470658,77.231967 L58.7470658,71.6206515 C65.7473848,67.6087423 70.5342152,60.4107216 72.0639367,51.600132 C76.0294633,50.4616577 79.4810127,46.7307876 79.4810127,43.2989691 C79.4810127,39.8251216 76.8758785,37.5197691 72.5696203,37.0422103 L72.5696203,22.3683629 L72.5449696,22.2233402 C72.5060354,21.9956454 71.5494987,16.5840825 67.7613646,11.1337237 C64.2312557,6.05446598 57.5037063,0 45.5,0 C33.4962937,0 26.7687443,6.05446598 23.2386354,11.1337237 C19.4507316,16.5840825 18.4939646,21.9956454 18.4550304,22.2233402 L18.4303797,22.3683629 L18.4303797,37.0422103 C14.1241215,37.5197691 11.5189873,39.8251216 11.5189873,43.2989691 C11.5189873,46.7307876 14.9705367,50.4616577 18.9362937,51.599901 C20.4673975,60.4139546 25.2551494,67.6117443 32.2531646,71.6206515 L32.2531646,77.231967 C30.068243,79.2990021 24.9929772,82.1809814 22.9391418,83.2649567 C20.9223975,83.9288742 18.9779924,84.6722309 17.1487772,85.4788619 C0.371602532,93.001567 0.0073721519,104.002969 0,104.467596 L0,112 L91,112 L91,104.486994 C90.9979266,104.018672 90.7544152,92.9322887 73.8415468,85.4513814 L73.8415468,85.4513814 Z M35.7088608,73.2729402 C38.7457266,74.4525196 42.0267949,75.0515464 45.5,75.0515464 C48.9738962,75.0515464 52.2556557,74.4522887 55.2911392,73.2731711 L55.2911392,77.2709938 C54.1092911,78.5094598 50.364238,81.9793814 45.5,81.9793814 C40.6673241,81.9793814 36.896238,78.5027629 35.7088608,77.2675299 L35.7088608,73.2729402 L35.7088608,73.2729402 Z M76.0253165,43.2989691 C76.0253165,44.713633 74.4985899,46.6398021 72.5083392,47.7027629 C72.5463519,47.0182928 72.5696203,46.3213526 72.5696203,45.6082474 L72.5696203,40.5236784 C75.6491063,40.9564371 76.0253165,42.5526103 76.0253165,43.2989691 L76.0253165,43.2989691 Z M26.0741494,13.113699 C30.5243949,6.71053196 37.0602684,3.46391753 45.5,3.46391753 C53.8918127,3.46391753 60.4030354,6.67566186 64.853281,13.0097814 C66.9066557,15.9326351 68.0415063,18.8931299 68.6192987,20.7835052 L61.6265823,20.7835052 C56.9199241,20.7835052 54.6640456,22.1415918 52.6737949,23.3398763 C50.8358253,24.4464825 49.2485089,25.4020619 45.5,25.4020619 C41.7514911,25.4020619 40.1641747,24.4464825 38.3262051,23.3398763 C36.3359544,22.1415918 34.0800759,20.7835052 29.3734177,20.7835052 L22.3765544,20.7835052 C22.9437494,18.9219959 24.0553316,16.0185402 26.0741494,13.113699 L26.0741494,13.113699 Z M14.9746835,43.2989691 C14.9746835,42.5526103 15.3508937,40.9564371 18.4303797,40.5236784 L18.4303797,45.6082474 C18.4303797,46.3213526 18.4536481,47.0185237 18.4916608,47.7027629 C16.5014101,46.6398021 14.9746835,44.713633 14.9746835,43.2989691 L14.9746835,43.2989691 Z M22.1687519,49.916668 C21.9814532,48.5789031 21.8860759,47.1293691 21.8860759,45.6082474 L21.8860759,24.2474227 L29.3734177,24.2474227 C33.1219266,24.2474227 34.709243,25.2030021 36.5472127,26.3096082 C38.5376937,27.5078928 40.7935722,28.8659794 45.5,28.8659794 C50.2064278,28.8659794 52.4625367,27.5078928 54.4527873,26.3096082 C56.290757,25.2030021 57.8780734,24.2474227 61.6265823,24.2474227 L69.1139241,24.2474227 L69.1139241,45.6082474 C69.1139241,47.1291381 69.0187772,48.5786722 68.8307873,49.9205938 C67.6424886,58.5450557 63.0477949,65.5197691 56.2214127,69.0585072 C53.0046203,70.7366598 49.3975646,71.5876289 45.5,71.5876289 C41.6024354,71.5876289 37.9953797,70.7366598 34.7746709,69.0561979 C27.9522051,65.5197691 23.3577418,58.5450557 22.1687519,49.916668 L22.1687519,49.916668 Z M24.149557,86.5124948 L24.2861722,86.4679258 L24.4135722,86.4011876 C25.1305139,86.0261608 30.7001747,83.0781361 33.9224962,80.3718928 C35.9143595,82.2518763 40.0922962,85.443299 45.5,85.443299 C50.9077038,85.443299 55.0856405,82.2518763 57.0775038,80.3721237 C60.2998253,83.078367 65.8694861,86.0263918 66.5864278,86.4014186 L66.7214304,86.4720825 L66.8665696,86.5178062 C68.4080405,87.004833 69.9331544,87.5659876 71.4177215,88.1839505 L71.4177215,108.536082 L62.1133747,108.536082 C61.2459949,100.115068 54.1265696,93.5257732 45.5,93.5257732 C36.8734304,93.5257732 29.7542354,100.115068 28.8866253,108.536082 L19.5822785,108.536082 L19.5822785,88.2063505 C21.0392,87.5990103 22.5682304,87.0295423 24.149557,86.5124948 L24.149557,86.5124948 Z M58.6304937,108.536082 L32.3695063,108.536082 C33.2191468,102.030384 38.7814354,96.9896907 45.5,96.9896907 C52.2185646,96.9896907 57.7806228,102.030384 58.6304937,108.536082 L58.6304937,108.536082 Z M3.4556962,104.52579 C3.46514177,104.346821 3.62087848,102.091118 5.42152658,99.1253113 C8.01583291,94.8529155 12.3248557,91.8238351 16.1265823,89.8237691 L16.1265823,108.536082 L3.4556962,108.536082 L3.4556962,104.52579 L3.4556962,104.52579 Z M87.5443038,108.536082 L74.8734177,108.536082 L74.8734177,89.785666 C78.7062456,91.7776495 83.0401494,94.8016495 85.6187899,99.0892866 C87.4715038,102.170326 87.543843,104.494614 87.5443038,104.494845 L87.5443038,108.536082 L87.5443038,108.536082 Z" id="Shape" fill="#231F20"></path>
                <path d="M45.5,54.2680412 L50.1075949,54.2680412 L50.1075949,50.8041237 L47.2278481,50.8041237 L47.2278481,43.2989691 L43.7721519,43.2989691 L43.7721519,52.5360825 C43.7721519,53.4925856 44.5455367,54.2680412 45.5,54.2680412 L45.5,54.2680412 Z" id="Shape" fill="#231F20"></path>
            </g>
        </g>
    </g>
</svg>